<svg width="142" height="60" viewBox="0 0 142 60" fill="none" xmlns="http://www.w3.org/2000/svg">
<path fill-rule="evenodd" clip-rule="evenodd" d="M53.628 29.309H51.02L46.631 16.571H48.992L52.324 26.244L55.656 16.571H58.018L53.628 29.309Z" fill="#2D92BF"/>
<path fill-rule="evenodd" clip-rule="evenodd" d="M61.47 15.332H61.756V29.12H59.527V15.524L61.47 15.332Z" fill="#2D92BF"/>
<path fill-rule="evenodd" clip-rule="evenodd" d="M69.0442 25.7198V25.1199C68.0069 25.1199 67.198 25.1023 66.6448 25.2341C66.0916 25.3676 65.7876 25.6523 65.7876 26.2344C65.7876 27.0433 66.3682 27.4904 67.1771 27.4904C67.4537 27.4904 67.9201 27.4341 68.3205 27.1865C68.721 26.9388 69.0442 26.4917 69.0442 25.7198ZM72.7109 27.4438L71.701 29.3093C70.9773 29.3093 70.215 29.0809 69.4833 28.2704C69.0925 28.5663 68.7499 28.8236 68.3398 29.0037C67.9201 29.1951 67.4537 29.3093 66.8169 29.3093C66.1318 29.3093 65.3213 29.1758 64.6828 28.7191C64.0363 28.2607 63.5603 27.4808 63.5603 26.1588C63.5603 25.292 63.7694 24.5957 64.3033 24.1293C64.8356 23.6629 65.7024 23.4056 67.0276 23.4056C67.5599 23.4056 68.1774 23.4056 69.0539 23.4828V22.9875C69.0539 22.3008 68.8352 21.8264 68.483 21.5401C68.1308 21.2539 67.6548 21.1413 67.1208 21.1413C66.2749 21.1413 65.2746 21.4452 64.4754 21.8167L63.9495 19.874C64.9884 19.3787 66.3119 19.0362 67.5599 19.0362C68.5393 19.0362 69.4527 19.2452 70.1394 19.7598C70.8149 20.2745 71.2442 21.0834 71.2442 22.2927V25.9675C71.2442 26.4338 71.3954 26.7571 71.6624 26.9871C71.9197 27.2154 72.2815 27.3569 72.7109 27.4438ZM78.851 25.7198V25.1199C77.8137 25.1199 77.0048 25.1023 76.4516 25.2341C75.8983 25.3676 75.5944 25.6523 75.5944 26.2344C75.5944 27.0433 76.175 27.4904 76.9839 27.4904C77.2605 27.4904 77.7269 27.4341 78.1273 27.1865C78.5277 26.9388 78.851 26.4917 78.851 25.7198ZM82.516 27.4438L81.5061 29.3093C80.7824 29.3093 80.0217 29.0809 79.29 28.2704C78.8976 28.5663 78.5551 28.8236 78.1466 29.0037C77.7269 29.1951 77.2605 29.3093 76.622 29.3093C75.9385 29.3093 75.128 29.1758 74.4896 28.7191C73.8431 28.2607 73.3671 27.4808 73.3671 26.1588C73.3671 25.292 73.5761 24.5957 74.11 24.1293C74.6423 23.6629 75.5092 23.4056 76.8327 23.4056C77.365 23.4056 77.9842 23.4056 78.8606 23.4828V22.9875C78.8606 22.3008 78.6403 21.8264 78.2881 21.5401C77.9375 21.2539 77.4615 21.1413 76.9276 21.1413C76.0801 21.1413 75.0798 21.4452 74.2805 21.8167L73.7562 19.874C74.7951 19.3787 76.1187 19.0362 77.365 19.0362C78.346 19.0362 79.2595 19.2452 79.9462 19.7598C80.6216 20.2745 81.0494 21.0834 81.0494 22.2927V25.9675C81.0494 26.4338 81.2022 26.7571 81.4691 26.9871C81.7264 27.2154 82.0883 27.3569 82.516 27.4438ZM85.7228 19.2356L85.9415 20.0075C86.8566 19.398 87.9887 19.0458 89.0919 19.0458C90.036 19.0458 90.9398 19.3031 91.5975 19.874C92.2536 20.4449 92.683 21.3118 92.683 22.5597V29.1195H90.4541V23.2158C90.4541 22.4825 90.1887 21.9679 89.7786 21.6446C89.3686 21.3214 88.8169 21.1879 88.2171 21.1879C87.4564 21.1879 86.6732 21.4163 86.0637 21.7974V29.1195H83.838V19.2356H85.7228ZM101.107 26.5577V21.331C100.544 21.1879 99.9746 21.122 99.5275 21.122C98.6784 21.122 97.9659 21.368 97.469 21.8827C96.9753 22.3973 96.689 23.1596 96.689 24.1872C96.689 24.9398 96.8981 25.6716 97.2985 26.2344C97.699 26.7957 98.2892 27.1672 99.0788 27.1672C99.7542 27.1672 100.507 26.9292 101.107 26.5577ZM101.65 29.1195L101.25 28.3765C100.488 28.9474 99.6883 29.3093 98.5931 29.3093C97.1747 29.3093 96.1165 28.7384 95.4234 27.8619C94.727 26.9871 94.3845 25.805 94.3845 24.586C94.3845 22.7205 94.9474 21.331 95.8801 20.4079C96.8129 19.4929 98.1268 19.0458 99.6513 19.0458C100.098 19.0458 100.584 19.0748 101.107 19.1407V15.5239L102.992 15.3325H103.336V29.1195H101.65ZM107.512 23.2432H111.502C111.454 22.5211 111.197 22.0065 110.854 21.6639C110.511 21.331 110.072 21.1879 109.645 21.1879C109.188 21.1879 108.722 21.3407 108.34 21.6736C107.951 22.0161 107.655 22.5308 107.512 23.2432ZM113.035 26.5577V28.7191C112.158 29.1469 111.073 29.3093 110.225 29.3093C108.853 29.3093 107.588 28.8799 106.655 28.034C105.722 27.1865 105.132 25.8919 105.132 24.1775C105.132 22.5115 105.685 21.2346 106.522 20.3581C107.351 19.4929 108.464 19.0458 109.579 19.0458C109.892 19.0458 110.454 19.0828 111.036 19.2822C111.616 19.4832 112.255 19.8644 112.729 20.5221C113.205 21.1783 113.538 22.1496 113.538 23.5198V25.0058H107.541C107.721 25.805 108.131 26.3486 108.664 26.6911C109.188 27.0337 109.826 27.1768 110.463 27.1768C111.303 27.1768 112.187 26.9388 112.948 26.5287L113.035 26.5577ZM121.889 19.435L121.185 21.6929C120.624 21.3503 120.071 21.1976 119.509 21.1976C118.786 21.1976 118.118 21.4645 117.518 21.9213V29.1195H115.291V19.2356H117.176L117.406 20.0445C118.089 19.4655 118.929 19.0458 119.918 19.0458C120.185 19.0458 120.556 19.0651 120.918 19.131C121.28 19.1986 121.634 19.2935 121.889 19.435ZM124.832 23.2432H128.821C128.772 22.5211 128.517 22.0065 128.174 21.6639C127.83 21.331 127.393 21.1879 126.965 21.1879C126.508 21.1879 126.042 21.3407 125.661 21.6736C125.27 22.0161 124.976 22.5308 124.832 23.2432ZM130.353 26.5577V28.7191C129.478 29.1469 128.393 29.3093 127.544 29.3093C126.174 29.3093 124.908 28.8799 123.975 28.034C123.042 27.1865 122.451 25.8919 122.451 24.1775C122.451 22.5115 123.004 21.2346 123.842 20.3581C124.67 19.4929 125.784 19.0458 126.897 19.0458C127.211 19.0458 127.774 19.0828 128.354 19.2822C128.936 19.4832 129.573 19.8644 130.049 20.5221C130.525 21.1783 130.858 22.1496 130.858 23.5198V25.0058H124.86C125.041 25.805 125.452 26.3486 125.984 26.6911C126.508 27.0337 127.145 27.1768 127.783 27.1768C128.621 27.1768 129.506 26.9388 130.268 26.5287L130.353 26.5577ZM134.494 19.2356L134.713 20.0075C135.628 19.398 136.76 19.0458 137.864 19.0458C138.808 19.0458 139.713 19.3031 140.369 19.874C141.025 20.4449 141.455 21.3118 141.455 22.5597V29.1195H139.226V23.2158C139.226 22.4825 138.96 21.9679 138.55 21.6446C138.14 21.3214 137.589 21.1879 136.989 21.1879C136.228 21.1879 135.446 21.4163 134.839 21.7974V29.1195H132.61V19.2356H134.494ZM50.2316 42.1041H51.0454V36.6282H50.2316V42.1041ZM50.0756 35.1342C50.0756 34.8189 50.3217 34.5697 50.6385 34.5697C50.9553 34.5697 51.2094 34.8189 51.2094 35.1342C51.2094 35.4397 50.9456 35.6938 50.6385 35.6938C50.3426 35.6938 50.0756 35.4301 50.0756 35.1342ZM52.4799 41.197L52.5104 41.1697C52.8594 41.308 53.3756 41.4447 53.7712 41.4447C54.347 41.4447 55.1495 41.181 55.1495 40.5586C55.1495 40.2675 54.9838 40.0777 54.7378 39.925C54.4097 39.7191 53.8388 39.5551 53.3386 39.2865C52.7629 38.9809 52.4992 38.5371 52.4992 37.963C52.4992 36.9176 53.3644 36.522 54.3631 36.522C54.7635 36.522 55.1543 36.5847 55.4759 36.6748V37.4146L55.4438 37.4306C55.1543 37.3502 54.6155 37.2554 54.2344 37.2554C53.7568 37.2554 53.3065 37.3969 53.3065 37.8938C53.3065 38.1945 53.4818 38.4004 53.7343 38.558C54.0784 38.7864 54.7313 38.9761 55.2588 39.2447C55.8185 39.5342 55.9664 39.8671 55.9664 40.454C55.9664 41.0443 55.6769 41.4865 55.254 41.7776C54.8278 42.0671 54.2682 42.2086 53.7246 42.2086C53.2598 42.2086 52.8369 42.1153 52.4799 41.9609V41.197ZM63.1792 40.1356V39.6934C62.4249 39.6869 61.8283 39.6773 61.423 39.7786C61.0161 39.8831 60.7958 40.0938 60.7958 40.5216C60.7958 41.107 61.2542 41.4495 61.7028 41.4495C62.5198 41.4495 63.1792 41.1118 63.1792 40.1356ZM64.7471 41.4447L64.2808 42.2086C63.8964 42.0831 63.6278 41.8033 63.4542 41.4447C63.036 41.9255 62.4458 42.2086 61.7656 42.2086C61.4005 42.2086 60.9582 42.1314 60.6044 41.8773C60.2458 41.6232 59.9885 41.2019 59.9885 40.5216C59.9885 39.3653 60.7685 38.9375 62.0759 38.9375C62.3718 38.9375 62.6935 38.96 63.1792 39.0019V38.32C63.1792 37.5722 62.8254 37.2763 62.1451 37.2763C61.5597 37.2763 61.0531 37.3872 60.4999 37.6671L60.2876 36.9546C61.0322 36.6539 61.4552 36.522 62.2866 36.522C63.3738 36.522 63.9929 37.0817 63.9929 38.32V40.0616C63.9929 40.7114 64.091 41.2388 64.7471 41.4447ZM68.9317 42.1041V38.6432C68.9317 38.1366 68.8271 37.7925 68.647 37.5786C68.4685 37.3663 68.2144 37.2763 67.9249 37.2763C67.465 37.2763 67.0324 37.4821 66.6255 37.7925V42.1041H65.8085V36.6282H66.3264L66.5097 37.1283C66.8426 36.9112 67.1176 36.7649 67.3653 36.6635C67.6129 36.5654 67.8397 36.522 68.0729 36.522C68.5312 36.522 68.9896 36.6909 69.3224 37.1122C69.5492 36.9707 69.8242 36.8228 70.1089 36.7118C70.3935 36.6008 70.6782 36.522 70.9306 36.522C71.4533 36.522 71.9342 36.6539 72.2928 36.9804C72.6466 37.3068 72.8669 37.8263 72.8669 38.5998V42.1089H72.0516V38.6497C72.0516 38.1206 71.9132 37.778 71.7026 37.5673C71.4855 37.3567 71.1847 37.2763 70.8518 37.2763C70.4257 37.2763 69.9979 37.4709 69.6184 37.6831C69.6972 37.9356 69.7454 38.238 69.7454 38.595V42.1041H68.9317ZM75.3355 37.8777V41.2919C75.6941 41.4334 76.0479 41.4608 76.4065 41.4608C77.5821 41.4608 78.2881 40.5586 78.2881 39.2592C78.2881 38.1415 77.7783 37.2827 76.6333 37.2827C76.0833 37.2827 75.6137 37.4773 75.3355 37.8777ZM75.2824 34.4651H75.3355V37.0013C75.7198 36.707 76.1733 36.522 76.7442 36.522C78.2302 36.522 79.1067 37.7925 79.1067 39.3331C79.1067 41.0121 78.1257 42.2086 76.347 42.2086C75.6684 42.2086 75.0235 42.0301 74.5185 41.8194V34.5697L75.2824 34.4651ZM80.5396 42.1041H81.3533V36.6282H80.5396V42.1041ZM80.382 35.1342C80.382 34.8189 80.6296 34.5697 80.9464 34.5697C81.2633 34.5697 81.5158 34.8189 81.5158 35.1342C81.5158 35.4397 81.252 35.6938 80.9464 35.6938C80.6505 35.6938 80.382 35.4301 80.382 35.1342ZM83.1818 36.6282V35.6456L83.9473 35.5024H83.9988V36.6282H85.5201V37.3872H83.9988V40.0777C83.9988 40.5795 84.1114 40.9172 84.2851 41.1375C84.4587 41.3595 84.708 41.456 84.9862 41.456C85.303 41.456 85.6568 41.3337 86.0155 41.1279L86.2374 41.8773C85.7726 42.088 85.3143 42.2086 84.8865 42.2086C84.4057 42.2086 83.9892 42.0622 83.6772 41.7197C83.3668 41.382 83.1818 40.8432 83.1818 40.0777V37.3872H82.5739V36.6282H83.1818ZM87.2972 42.1041H88.1109V36.6282H87.2972V42.1041ZM87.138 35.1342C87.138 34.8189 87.3873 34.5697 87.7041 34.5697C88.0209 34.5697 88.2734 34.8189 88.2734 35.1342C88.2734 35.4397 88.0096 35.6938 87.7041 35.6938C87.4082 35.6938 87.138 35.4301 87.138 35.1342ZM90.3946 38.833H92.9677C92.958 37.9774 92.7361 37.2827 91.8821 37.2827C91.0202 37.2827 90.5264 37.9581 90.3946 38.833ZM93.7702 39.5728H90.356C90.43 40.7162 91.1215 41.4495 92.1652 41.4495C92.6573 41.4495 93.143 41.3128 93.6431 41.0603L93.6592 41.0636V41.8194C93.0899 42.0992 92.593 42.2086 92.088 42.2086C90.4991 42.2086 89.5438 41.0861 89.5438 39.2978C89.5438 37.7089 90.282 36.522 91.8966 36.522C93.3006 36.522 93.7702 37.5722 93.7702 38.833V39.5728ZM98.7266 42.1041L98.5642 41.5814C98.3374 41.7293 98.056 41.8869 97.7617 42.0092C97.4658 42.1314 97.1602 42.2086 96.9029 42.2086C96.3787 42.2086 95.901 42.0719 95.5456 41.7454C95.187 41.4174 94.9667 40.906 94.9667 40.1308V36.6282H95.7836V40.0826C95.7836 40.61 95.9203 40.9542 96.1374 41.1649C96.3481 41.3755 96.6488 41.456 96.9801 41.456C97.2342 41.456 97.4883 41.3916 97.736 41.2855C97.9836 41.1858 98.2152 41.0603 98.4275 40.9317V36.6282H99.2445V42.1041H98.7266ZM100.52 41.197L100.55 41.1697C100.899 41.308 101.416 41.4447 101.811 41.4447C102.387 41.4447 103.189 41.181 103.189 40.5586C103.189 40.2675 103.024 40.0777 102.778 39.925C102.45 39.7191 101.879 39.5551 101.379 39.2865C100.803 38.9809 100.539 38.5371 100.539 37.963C100.539 36.9176 101.404 36.522 102.403 36.522C102.803 36.522 103.194 36.5847 103.516 36.6748V37.4146L103.484 37.4306C103.194 37.3502 102.655 37.2554 102.274 37.2554C101.797 37.2554 101.346 37.3969 101.346 37.8938C101.346 38.1945 101.522 38.4004 101.774 38.558C102.118 38.7864 102.771 38.9761 103.299 39.2447C103.858 39.5342 104.006 39.8671 104.006 40.454C104.006 41.0443 103.717 41.4865 103.294 41.7776C102.868 42.0671 102.308 42.2086 101.764 42.2086C101.3 42.2086 100.877 42.1153 100.52 41.9609V41.197Z" fill="#2D92BF"/>
<path fill-rule="evenodd" clip-rule="evenodd" d="M46.55 60L26.18 0.103L26.469 0L46.842 59.899L46.55 60Z" fill="#2D92BF"/>
<path fill-rule="evenodd" clip-rule="evenodd" d="M26.5928 29.877C25.1213 28.7577 24.4346 29.885 23.5115 29.8078C22.7283 29.7499 21.995 28.4859 21.3919 28.7866C20.2356 29.3736 21.8503 31.4546 22.5546 31.8776C23.1818 32.2507 23.9699 32.5964 24.1596 32.6881C25.0859 33.1191 25.4558 33.7768 25.5748 34.8029C25.6022 35.0361 25.5748 35.5748 25.5153 35.8241C25.0908 37.622 21.9435 39.2543 20.1311 38.016C19.2788 37.4355 18.5036 36.6812 18.2318 35.3464C17.7445 32.984 16.0431 31.2472 15.4947 28.9346C15.1618 27.5322 14.919 26.0479 14.5507 24.6359C14.176 23.1724 13.7916 21.7251 13.4877 20.3983C13.2078 19.1632 12.6192 17.317 12.1979 16.1961C10.4675 11.6867 9.68751 12.0148 9.68751 12.0148C9.68751 12.0148 10.3179 13.2628 12.6048 24.3191C12.698 24.7742 13.5327 29.6406 14.1358 31.2455C14.3545 31.8213 14.734 33.0451 14.9817 33.5919C15.7102 35.1727 17.632 37.577 17.7574 39.7384C17.8314 40.988 17.9745 42.0269 18.0051 42.9741C18.0244 43.2491 18.145 44.378 18.3251 44.883C18.7963 46.2017 22.582 50.4586 26.6025 50.4586V47.2326C22.6077 47.2326 18.8429 44.994 18.7481 44.7543C18.6918 44.6514 18.9587 43.1236 19.2273 42.4466C19.7564 41.1327 20.7406 39.9298 22.4775 39.8011C24.4105 39.6612 25.5797 40.2273 26.6025 40.2273L26.5928 29.877ZM9.24204 18.1581C9.0973 20.5784 5.35504 23.8832 4.18589 26.0044C3.60855 27.0449 2.90577 28.8397 2.72565 29.877C2.22872 32.7572 2.85913 34.5472 3.56512 36.2406C4.80182 39.2029 3.39466 40.2948 4.3644 39.6966C5.55928 38.7204 5.38077 36.44 5.29071 35.0184C5.22156 33.8637 5.14598 32.5514 5.32127 31.1764C5.65256 28.6049 7.21089 25.8436 8.53926 23.9122C10.1153 21.6093 9.54438 19.2291 9.24204 18.1581ZM9.99789 25.0283C9.99789 25.0283 10.3951 26.9452 8.7049 31.8647C4.2872 44.7447 12.727 45.9653 15.1296 48.9935C15.1296 48.9935 16.064 47.6829 12.2333 43.4855C10.8358 41.9497 9.57493 38.5676 10.6749 33.7415C12.259 26.7474 9.99789 25.0283 9.99789 25.0283ZM1.64173 16.5853C1.44231 15.823 1.37959 15.1379 1.42141 14.5316C1.62725 11.5082 4.37404 10.2828 5.05753 9.83087C5.05753 9.83087 6.29422 8.98657 6.45504 8.13262C6.45504 8.13262 7.71747 11.3152 4.8179 13.1389C3.34802 14.0652 2.34451 15.1508 1.64173 16.5853ZM8.56981 13.6584C8.72742 13.9639 9.86763 15.6316 5.20548 19.4816C0.548158 23.3268 1.99875 26.0784 1.99875 26.0784C1.99875 26.0784 -2.96735 23.3139 2.7562 18.5328C8.48136 13.7629 7.30417 12.7964 7.30417 12.7964C7.30417 12.7964 8.12595 12.7562 8.56981 13.6584ZM17.1399 16.2636C17.2058 16.0819 17.3055 16.2266 17.5097 16.098C17.7236 15.8954 17.9504 15.5544 18.301 15.4386C18.5567 15.3647 18.9041 15.4033 19.1421 15.4949C19.2997 15.5351 19.2064 15.9388 19.0858 16.0433C18.8317 16.2266 18.0887 15.9227 18.0887 16.4791C18.1176 17.3958 19.327 16.4502 19.9542 16.4759C20.263 18.7097 16.5931 18.0986 17.1399 16.2636ZM14.6279 15.1315C15.4336 15.2376 15.9482 17.7496 17.8105 18.2948C19.1839 18.6952 20.6377 18.4829 20.9658 19.3047C20.3321 19.6392 20.8291 20.7441 21.4611 20.5639C21.9853 19.0941 22.2459 13.4171 14.6279 15.1315Z" fill="#2D92BF"/>
</svg>
