<svg xmlns="http://www.w3.org/2000/svg" width="126" height="54" viewBox="0 0 126 54">
      <polyline fill="#2F2F2E"
                points="1.049 33.042 3.317 39.628 5.585 33.042 6.5 33.042 3.906 40.571 2.724 40.571 .135 33.042 1.049 33.042" />
      <polyline fill="#2F2F2E" points="8.378 32.3 8.436 32.3 8.436 40.571 7.555 40.571 7.555 32.415 8.378 32.3" />
      <path fill="#2F2F2E"
            d="M13.2630681 38.440179 13.2630681 37.9616873C12.4448069 37.9556559 11.7994462 37.9435931 11.3611638 38.0521584 10.920871 38.1667552 10.6816251 38.3959487 10.6816251 38.8583567 10.6816251 39.4916547 11.1782111 39.8635915 11.6627342 39.8635915 12.5493513 39.8635915 13.2630681 39.4976861 13.2630681 38.440179ZM14.9599044 39.8575601 14.457287 40.6858736C14.0391093 40.5491617 13.7475912 40.2455808 13.5606176 39.8575601 13.1082619 40.3762613 12.4689326 40.6858736 11.7310902 40.6858736 11.3370382 40.6858736 10.8585464 40.6014339 10.4745467 40.3259995 10.0865261 40.0525757 9.80707078 39.5941886 9.80707078 38.8583567 9.80707078 37.6078446 10.651468 37.1434261 12.0688491 37.1434261 12.3885138 37.1434261 12.736325 37.1675518 13.2630681 37.2137926L13.2630681 36.4759502C13.2630681 35.665731 12.8790684 35.3460663 12.1432365 35.3460663 11.5079281 35.3460663 10.9610803 35.464684 10.3599499 35.7682649L10.1327669 34.9962446C10.9369547 34.6705485 11.3953418 34.5278052 12.2980426 34.5278052 13.4741674 34.5278052 14.1416433 35.1329565 14.1416433 36.4759502L14.1416433 38.3617707C14.1416433 39.0634246 14.2502086 39.634398 14.9599044 39.8575601L14.9599044 39.8575601ZM19.0994613 38.440179 19.0994613 37.9616873C18.2832107 37.9556559 17.6378499 37.9435931 17.1975571 38.0521584 16.7592747 38.1667552 16.5180184 38.3959487 16.5180184 38.8583567 16.5180184 39.4916547 17.0146044 39.8635915 17.501138 39.8635915 18.3857446 39.8635915 19.0994613 39.4976861 19.0994613 38.440179ZM20.7962977 39.8575601 20.2936803 40.6858736C19.8775131 40.5491617 19.585995 40.2455808 19.3970108 39.8575601 18.9466657 40.3762613 18.3073363 40.6858736 17.569494 40.6858736 17.1754419 40.6858736 16.6949397 40.6014339 16.3129505 40.3259995 15.9249298 40.0525757 15.6434641 39.5941886 15.6434641 38.8583567 15.6434641 37.6078446 16.4898718 37.1434261 17.9072529 37.1434261 18.2269175 37.1434261 18.5747288 37.1675518 19.0994613 37.2137926L19.0994613 36.4759502C19.0994613 35.665731 18.7174721 35.3460663 17.9796298 35.3460663 17.3463318 35.3460663 16.7974736 35.464684 16.1983537 35.7682649L15.9691602 34.9962446C16.7753585 34.6705485 17.2317351 34.5278052 18.1344359 34.5278052 19.3125711 34.5278052 19.980047 35.1329565 19.980047 36.4759502L19.980047 38.3617707C19.980047 39.0634246 20.0886124 39.634398 20.7962977 39.8575601L20.7962977 39.8575601ZM25.3218648 40.5712768 25.3218648 36.8237615C25.3218648 36.2769137 25.207268 35.9049769 25.0122525 35.6697519 24.8192474 35.4405584 24.5438131 35.3460663 24.2301798 35.3460663 23.7335938 35.3460663 23.2651544 35.567218 22.8248615 35.9049769L22.8248615 40.5712768 21.9402549 40.5712768 21.9402549 34.6424019 22.4991655 34.6424019 22.7002124 35.1852287C23.058076 34.9500038 23.3556255 34.7911767 23.6250285 34.6826113 23.8924209 34.574046 24.1397087 34.5278052 24.3910174 34.5278052 24.8876034 34.5278052 25.3841894 34.7107579 25.7440634 35.1671345 25.9893407 35.0123284 26.2868902 34.8535013 26.5944921 34.7328731 26.9041044 34.6142554 27.2117062 34.5278052 27.4851301 34.5278052 28.0520825 34.5278052 28.5707837 34.6705485 28.9608148 35.0264016 29.342804 35.3782338 29.5820499 35.9391548 29.5820499 36.7795311L29.5820499 40.5773082 28.6974433 40.5773082 28.6974433 36.8297929C28.6974433 36.2588195 28.5486685 35.8868826 28.319475 35.6596996 28.0862605 35.430506 27.7605644 35.3460663 27.4006904 35.3460663 26.9362719 35.3460663 26.4738639 35.5551551 26.0637281 35.7843487 26.1501783 36.0577726 26.20044 36.3834686 26.20044 36.7734997L26.20044 40.5712768 25.3218648 40.5712768M30.896897 39.5881572 30.931075 39.5600106C31.3070329 39.7087854 31.8679539 39.8575601 32.2961839 39.8575601 32.917419 39.8575601 33.7859419 39.5720734 33.7859419 38.8985661 33.7859419 38.5829224 33.6090206 38.3778545 33.3416281 38.212996 32.9877854 37.9898339 32.3705713 37.8129125 31.8277445 37.5213944 31.2044989 37.1896669 30.9190122 36.7091647 30.9190122 36.0879296 30.9190122 34.9560352 31.8558911 34.5278052 32.9355132 34.5278052 33.3697747 34.5278052 33.7919733 34.5961611 34.1397845 34.6926637L34.1397845 35.4928306 34.107617 35.5109248C33.7919733 35.4244746 33.2109476 35.3219407 32.7988013 35.3219407 32.2780897 35.3219407 31.7935665 35.4767468 31.7935665 36.0135422 31.7935665 36.3392383 31.9825506 36.56039 32.2559745 36.7332903 32.6259009 36.9785676 33.3355967 37.1836355 33.9065701 37.4751536 34.5117214 37.7907974 34.672559 38.148661 34.672559 38.7839693 34.672559 39.4232987 34.3569153 39.9038009 33.9005387 40.2174342 33.4381306 40.5310674 32.8329793 40.6858736 32.2439117 40.6858736 31.7412943 40.6858736 31.2849177 40.5833397 30.896897 40.4184811L30.896897 39.5881572M36.5061073 37.0308398 39.2946286 37.0308398C39.2825658 36.1040134 39.0433199 35.3500872 38.1164934 35.3500872 37.185646 35.3500872 36.6488506 36.0818982 36.5061073 37.0308398ZM40.161141 37.8289963 36.4658979 37.8289963C36.5463167 39.069456 37.2942114 39.8635915 38.4261058 39.8635915 38.9568697 39.8635915 39.4816023 39.7148168 40.0244291 39.4393824L40.0425233 39.4454139 40.0425233 40.2616645C39.4253092 40.5652454 38.8885138 40.6858736 38.3396556 40.6858736 36.620704 40.6858736 35.5853122 39.4695395 35.5853122 37.5334572 35.5853122 35.8124953 36.3854791 34.5278052 38.1345877 34.5278052 39.6524922 34.5278052 40.161141 35.665731 40.161141 37.0308398L40.161141 37.8289963 40.161141 37.8289963ZM48.7237311 37.9958653 47.3425385 33.9910098 45.9593354 37.9958653 48.7237311 37.9958653ZM45.6798801 38.8181473 45.0747288 40.5712768 44.1599651 40.5712768 46.7474395 33.0420681 47.9316061 33.0420681 50.5231014 40.5712768 49.6103482 40.5712768 49.0051969 38.8181473 45.6798801 38.8181473 45.6798801 38.8181473ZM55.2074956 39.2182308 55.2074956 35.5732494C54.8074122 35.4184432 54.4193915 35.3400349 54.0474547 35.3400349 53.4543661 35.3400349 52.9457173 35.529019 52.5858433 35.9049769 52.2199378 36.2829451 52.0088385 36.8478871 52.0088385 37.5957818 52.0088385 38.1888703 52.139519 38.7538123 52.4330476 39.17199 52.7225552 39.5881572 53.1688794 39.8635915 53.8021774 39.8635915 54.3972764 39.8635915 54.8938624 39.6585236 55.2074956 39.2182308ZM55.5331917 40.5773082 55.350239 40.0525757C54.8998938 40.4405963 54.3691298 40.6858736 53.6835597 40.6858736 52.9055079 40.6858736 52.2661786 40.3259995 51.8198543 39.7489948 51.3755406 39.1780214 51.1242318 38.3899173 51.1242318 37.5213944 51.1242318 36.6810181 51.3634777 35.9391548 51.8540323 35.396328 52.3465974 34.8535013 53.0884607 34.5278052 54.1117897 34.5278052 54.4998103 34.5278052 54.8596844 34.5800774 55.2074956 34.6484334L55.2074956 32.4148016 56.0358091 32.3002048 56.0941127 32.3002048 56.0941127 40.5773082 55.5331917 40.5773082 55.5331917 40.5773082Z" />
      <polyline fill="#2F2F2E"
                points="60.395 40.571 59.212 40.571 57.178 34.642 58.093 34.642 59.805 39.628 61.52 34.642 62.433 34.642 60.395 40.571" />
      <path fill="#2F2F2E"
            d="M63.685646 40.5732873 64.5642212 40.5732873 64.5642212 34.6424019 63.685646 34.6424019 63.685646 40.5732873ZM63.5127456 33.0259844C63.5127456 32.6821941 63.7821485 32.4148016 64.1259389 32.4148016 64.4677187 32.4148016 64.7411426 32.6821941 64.7411426 33.0259844 64.7411426 33.3577119 64.4556559 33.6311357 64.1259389 33.6311357 63.8042637 33.6311357 63.5127456 33.345649 63.5127456 33.0259844L63.5127456 33.0259844ZM67.0330779 37.0308398 69.8195888 37.0308398C69.807526 36.1040134 69.5682801 35.3500872 68.6434641 35.3500872 67.7126166 35.3500872 67.1758213 36.0818982 67.0330779 37.0308398ZM70.6881117 37.8289963 66.9928685 37.8289963C67.0732873 39.069456 67.821182 39.8635915 68.9510659 39.8635915 69.4838404 39.8635915 70.0085729 39.7148168 70.5513997 39.4393824L70.5674835 39.4454139 70.5674835 40.2616645C69.9502693 40.5652454 69.4134739 40.6858736 68.8666262 40.6858736 67.1476747 40.6858736 66.1122828 39.4695395 66.1122828 37.5334572 66.1122828 35.8124953 66.9124497 34.5278052 68.6595478 34.5278052 70.1794629 34.5278052 70.6881117 35.665731 70.6881117 37.0308398L70.6881117 37.8289963 70.6881117 37.8289963ZM71.5727183 39.5881572 71.6089068 39.5600106C71.9848646 39.7087854 72.5437751 39.8575601 72.9720052 39.8575601 73.5952507 39.8575601 74.4637736 39.5720734 74.4637736 38.8985661 74.4637736 38.5829224 74.2868523 38.3778545 74.0174494 38.212996 73.6636067 37.9898339 73.048403 37.8129125 72.5035657 37.5213944 71.8823306 37.1896669 71.5968439 36.7091647 71.5968439 36.0879296 71.5968439 34.9560352 72.5337228 34.5278052 73.613345 34.5278052 74.0476064 34.5278052 74.469805 34.5961611 74.8176163 34.6926637L74.8176163 35.4928306 74.7834383 35.5109248C74.469805 35.4244746 73.8867688 35.3219407 73.4746226 35.3219407 72.9559214 35.3219407 72.4713982 35.4767468 72.4713982 36.0135422 72.4713982 36.3392383 72.6583719 36.56039 72.9338062 36.7332903 73.3037326 36.9785676 74.011418 37.1836355 74.5823913 37.4751536 75.1895531 37.7907974 75.3483802 38.148661 75.3483802 38.7839693 75.3483802 39.4232987 75.034747 39.9038009 74.5783704 40.2174342 74.1159624 40.5310674 73.5088005 40.6858736 72.9217434 40.6858736 72.419126 40.6858736 71.9607389 40.5833397 71.5727183 40.4184811L71.5727183 39.5881572M77.3146195 34.6424019 77.5196874 35.3159093C77.9579698 34.8072605 78.4284197 34.5278052 78.9752674 34.5278052 79.1200212 34.5278052 79.2969426 34.5458994 79.4718534 34.5800774 79.6487748 34.6142554 79.8216751 34.6705485 79.9583871 34.7328731L79.6487748 35.529019C79.4276231 35.4184432 79.0778014 35.3460663 78.8325241 35.3460663 78.3138229 35.3460663 77.9077081 35.6757833 77.6061376 36.1381913L77.6061376 40.5712768 76.7195205 40.5712768 76.7195205 34.6424019 77.3146195 34.6424019M84.0155148 38.440179 84.0155148 37.9616873C83.1972536 37.9556559 82.5518929 37.9435931 82.1116 38.0521584 81.6733177 38.1667552 81.4340718 38.3959487 81.4340718 38.8583567 81.4340718 39.4916547 81.9306578 39.8635915 82.4151809 39.8635915 83.2997876 39.8635915 84.0155148 39.4976861 84.0155148 38.440179ZM85.7103406 39.8575601 85.2077232 40.6858736C84.791556 40.5491617 84.5000379 40.2455808 84.3130643 39.8575601 83.8607086 40.3762613 83.2213793 40.6858736 82.4835369 40.6858736 82.0894849 40.6858736 81.6089826 40.6014339 81.2269934 40.3259995 80.8389728 40.0525757 80.5595175 39.5941886 80.5595175 38.8583567 80.5595175 37.6078446 81.4039147 37.1434261 82.8212958 37.1434261 83.1409605 37.1434261 83.4887717 37.1675518 84.0155148 37.2137926L84.0155148 36.4759502C84.0155148 35.665731 83.6335255 35.3460663 82.8956832 35.3460663 82.2623853 35.3460663 81.713527 35.464684 81.1123966 35.7682649L80.8852136 34.9962446C81.6894014 34.6705485 82.145778 34.5278052 83.0484789 34.5278052 84.2266141 34.5278052 84.89409 35.1329565 84.89409 36.4759502L84.89409 38.3617707C84.89409 39.0634246 85.0026553 39.634398 85.7103406 39.8575601L85.7103406 39.8575601ZM89.851908 38.440179 89.851908 37.9616873C89.0336469 37.9556559 88.3902966 37.9435931 87.9500038 38.0521584 87.5097109 38.1667552 87.2704651 38.3959487 87.2704651 38.8583567 87.2704651 39.4916547 87.7670511 39.8635915 88.2535847 39.8635915 89.1381913 39.8635915 89.851908 39.4976861 89.851908 38.440179ZM91.5487444 39.8575601 91.046127 40.6858736C90.6299598 40.5491617 90.3384417 40.2455808 90.1494576 39.8575601 89.6991124 40.3762613 89.0577726 40.6858736 88.3219407 40.6858736 87.9278886 40.6858736 87.4473864 40.6014339 87.0653972 40.3259995 86.6753661 40.0525757 86.3959108 39.5941886 86.3959108 38.8583567 86.3959108 37.6078446 87.2423185 37.1434261 88.6576891 37.1434261 88.9773538 37.1434261 89.3271755 37.1675518 89.851908 37.2137926L89.851908 36.4759502C89.851908 35.665731 89.4699188 35.3460663 88.7320765 35.3460663 88.0987785 35.3460663 87.5499203 35.464684 86.9508004 35.7682649L86.7216069 34.9962446C87.5257947 34.6705485 87.9841818 34.5278052 88.8868826 34.5278052 90.0650178 34.5278052 90.7304833 35.1329565 90.7304833 36.4759502L90.7304833 38.3617707C90.7304833 39.0634246 90.8410591 39.634398 91.5487444 39.8575601L91.5487444 39.8575601ZM96.3175783 39.2182308 96.3175783 35.5732494C95.9174949 35.4184432 95.5294742 35.3400349 95.1575374 35.3400349 94.5644488 35.3400349 94.0558 35.529019 93.695926 35.9049769 93.3300205 36.2829451 93.1189212 36.8478871 93.1189212 37.5957818 93.1189212 38.1888703 93.2516122 38.7538123 93.5411198 39.17199 93.8326379 39.5881572 94.2789621 39.8635915 94.9122601 39.8635915 95.5073591 39.8635915 96.0039451 39.6585236 96.3175783 39.2182308ZM96.6432744 40.5773082 96.4603217 40.0525757C96.0099765 40.4405963 95.477202 40.6858736 94.7916319 40.6858736 94.0155906 40.6858736 93.3762613 40.3259995 92.9319475 39.7489948 92.4856232 39.1780214 92.2343145 38.3899173 92.2343145 37.5213944 92.2343145 36.6810181 92.4735604 35.9391548 92.964115 35.396328 93.4546696 34.8535013 94.1985434 34.5278052 95.2198619 34.5278052 95.609893 34.5278052 95.9697671 34.5800774 96.3175783 34.6484334L96.3175783 32.4148016 97.1458918 32.3002048 97.202185 32.3002048 97.202185 40.5773082 96.6432744 40.5773082 96.6432744 40.5773082Z" />
      <polyline fill="#2F2F2E"
                points="104.932 40.571 103.75 40.571 101.718 34.642 102.63 34.642 104.343 39.628 106.058 34.642 106.973 34.642 104.932 40.571" />
      <path fill="#2F2F2E"
            d="M108.478909 37.5776876C108.478909 38.1949018 108.633715 38.7719065 108.947348 39.1840528 109.262992 39.60022 109.7254 39.8635915 110.342614 39.8635915 110.935703 39.8635915 111.388059 39.6223352 111.689629 39.2302936 111.991199 38.8342311 112.148016 38.2753205 112.148016 37.6400121 112.148016 37.018777 111.991199 36.4417722 111.689629 36.025605 111.388059 35.6074274 110.929671 35.3500872 110.312457 35.3500872 109.719369 35.3500872 109.262992 35.5913436 108.95338 35.9894166 108.645778 36.3895 108.478909 36.9564525 108.478909 37.5776876ZM107.594302 37.6239284C107.594302 36.7614369 107.879789 35.9894166 108.364312 35.430506 108.844815 34.869585 109.530385 34.5278052 110.336583 34.5278052 111.142781 34.5278052 111.826341 34.8756164 112.29478 35.430506 112.76322 35.9853956 113.032623 36.7493741 113.032623 37.5957818 113.032623 38.4582733 112.751157 39.2242622 112.272665 39.7831727 111.788142 40.3440938 111.09654 40.6858736 110.290342 40.6858736 109.474091 40.6858736 108.804605 40.3380624 108.336166 39.7831727 107.867726 39.2343145 107.594302 38.4703361 107.594302 37.6239284L107.594302 37.6239284ZM114.661103 37.5776876C114.661103 38.1949018 114.815909 38.7719065 115.129543 39.1840528 115.443176 39.60022 115.905584 39.8635915 116.522798 39.8635915 117.117897 39.8635915 117.568242 39.6223352 117.871823 39.2302936 118.173394 38.8342311 118.3282 38.2753205 118.3282 37.6400121 118.3282 37.018777 118.173394 36.4417722 117.871823 36.025605 117.568242 35.6074274 117.111866 35.3500872 116.494651 35.3500872 115.899552 35.3500872 115.443176 35.5913436 115.135574 35.9894166 114.825962 36.3895 114.661103 36.9564525 114.661103 37.5776876ZM113.774486 37.6239284C113.774486 36.7614369 114.059973 35.9894166 114.546506 35.430506 115.027009 34.869585 115.712579 34.5278052 116.516767 34.5278052 117.322965 34.5278052 118.008535 34.8756164 118.476974 35.430506 118.945414 35.9853956 119.212806 36.7493741 119.212806 37.5957818 119.212806 38.4582733 118.933351 39.2242622 118.452849 39.7831727 117.968326 40.3440938 117.276724 40.6858736 116.472536 40.6858736 115.654275 40.6858736 114.986799 40.3380624 114.51836 39.7831727 114.04992 39.2343145 113.774486 38.4703361 113.774486 37.6239284L113.774486 37.6239284ZM120.720659 34.6424019 120.927737 35.3159093C121.36803 34.8072605 121.834459 34.5278052 122.383317 34.5278052 122.52606 34.5278052 122.702982 34.5458994 122.879903 34.5800774 123.058835 34.6142554 123.229725 34.6705485 123.366437 34.7328731L123.058835 35.529019C122.833662 35.4184432 122.487861 35.3460663 122.240574 35.3460663 121.721872 35.3460663 121.315758 35.6757833 121.012177 36.1381913L121.012177 40.5712768 120.12757 40.5712768 120.12757 34.6424019 120.720659 34.6424019" />
      <polygon fill="#2F2F2E" points=".907 52.885 1.787 52.885 1.787 45.356 .907 45.356" />
      <path fill="#2F2F2E"
            d="M4.2079129 46.9565283 4.37478188 47.5053865C4.62005918 47.344549 4.91760868 47.1796905 5.23124194 47.0530309 5.5448752 46.9283818 5.87057128 46.8419316 6.15002655 46.8419316 6.71496852 46.8419316 7.23568015 46.9846749 7.62370078 47.340528 8.00770048 47.6943707 8.24694636 48.2532812 8.24694636 49.0936575L8.24694636 52.8854032 7.36233973 52.8854032 7.36233973 49.1459297C7.36233973 48.5729459 7.21356498 48.2030195 6.98437144 47.973826 6.75115697 47.7446324 6.42546089 47.6601927 6.06558683 47.6601927 5.79015249 47.6601927 5.51069722 47.7325696 5.24330476 47.8431454 4.97390183 47.9517108 4.72862454 48.0944541 4.499431 48.2311661L4.499431 52.8854032 3.61482437 52.8854032 3.61482437 46.9565283 4.2079129 46.9565283M10.6112586 46.9565283 10.7781276 47.5053865C11.0234049 47.344549 11.3209544 47.1796905 11.6345877 47.0530309 11.9482209 46.9283818 12.273917 46.8419316 12.5553827 46.8419316 13.1203247 46.8419316 13.6390259 46.9846749 14.029057 47.340528 14.4110462 47.6943707 14.6502921 48.2532812 14.6502921 49.0936575L14.6502921 52.8854032 13.7656855 52.8854032 13.7656855 49.1459297C13.7656855 48.5729459 13.6169107 48.2030195 13.3877172 47.973826 13.1545027 47.7446324 12.8288066 47.6601927 12.4689326 47.6601927 12.1955087 47.6601927 11.9140429 47.7325696 11.6466505 47.8431454 11.3772476 47.9517108 11.1319703 48.0944541 10.9027767 48.2311661L10.9027767 52.8854032 10.0181701 52.8854032 10.0181701 46.9565283 10.6112586 46.9565283M16.8497458 49.8938244C16.8497458 50.5090281 17.004552 51.0880434 17.3181853 51.4981792 17.6318185 51.9143464 18.0942265 52.1777179 18.7114407 52.1777179 19.3065397 52.1777179 19.7568849 51.938472 20.0604658 51.54442 20.3620363 51.150368 20.5168424 50.5894469 20.5168424 49.956149 20.5168424 49.3329034 20.3620363 48.7558986 20.0604658 48.3397314 19.7568849 47.9215538 19.3005083 47.6642136 18.6832941 47.6642136 18.0902056 47.6642136 17.6318185 47.90547 17.3242167 48.303543 17.0146044 48.7056369 16.8497458 49.2705789 16.8497458 49.8938244ZM15.9651392 49.9380548C15.9651392 49.0755633 16.2506259 48.303543 16.7351491 47.7446324 17.2156513 47.1837114 17.9012215 46.8419316 18.7054093 46.8419316 19.5116076 46.8419316 20.1971778 47.1897428 20.6656172 47.7446324 21.1340566 48.299522 21.4034595 49.0635005 21.4034595 49.9099082 21.4034595 50.7723997 21.1219938 51.5383886 20.643502 52.0972991 20.1569684 52.6582202 19.4653668 53 18.661179 53 17.8429178 53 17.1754419 52.6521888 16.7070025 52.0972991 16.2385631 51.5484409 15.9651392 50.7844625 15.9651392 49.9380548L15.9651392 49.9380548Z" />
      <polyline fill="#2F2F2E"
                points="25.245 52.885 24.063 52.885 22.031 46.957 22.945 46.957 24.658 51.945 26.371 46.957 27.286 46.957 25.245 52.885" />
      <path fill="#2F2F2E"
            d="M28.8281238 49.3449662 31.6166452 49.3449662C31.6045824 48.4181397 31.3653365 47.6642136 30.43851 47.6642136 29.5076625 47.6642136 28.9708672 48.3960246 28.8281238 49.3449662ZM32.485168 50.1451331 28.7879144 50.1451331C28.8683332 51.3835824 29.6162279 52.1777179 30.7481223 52.1777179 31.2788863 52.1777179 31.8056293 52.0289432 32.3484561 51.7555193L32.3645399 51.7615507 32.3645399 52.5778014C31.7473257 52.8793718 31.2105303 53 30.6616721 53 28.9427206 53 27.9093392 51.7836659 27.9093392 49.8475836 27.9093392 48.1266217 28.7095061 46.8419316 30.4566042 46.8419316 31.9765192 46.8419316 32.485168 47.9798574 32.485168 49.3449662L32.485168 50.1451331 32.485168 50.1451331ZM34.4212503 46.9565283 34.6263182 47.6300357C35.066611 47.1213868 35.5350505 46.8419316 36.0839087 46.8419316 36.226652 46.8419316 36.4035733 46.8600258 36.5804947 46.8942038 36.757416 46.9283818 36.9283059 46.9846749 37.0650178 47.0469995L36.757416 47.8431454C36.5342539 47.7325696 36.1864426 47.6601927 35.9411653 47.6601927 35.4204537 47.6601927 35.0143388 47.9899097 34.7127684 48.4543282L34.7127684 52.8854032 33.8261513 52.8854032 33.8261513 46.9565283 34.4212503 46.9565283M38.0702526 49.3449662 40.858774 49.3449662C40.8467112 48.4181397 40.6074653 47.6642136 39.6806388 47.6642136 38.7497914 47.6642136 38.212996 48.3960246 38.0702526 49.3449662ZM41.7272969 50.1451331 38.0300432 50.1451331C38.110462 51.3835824 38.8583567 52.1777179 39.9902511 52.1777179 40.5210151 52.1777179 41.0477581 52.0289432 41.5905849 51.7555193L41.6066687 51.7615507 41.6066687 52.5778014C40.9894545 52.8793718 40.4526591 53 39.9038009 53 38.1848494 53 37.151468 51.7836659 37.151468 49.8475836 37.151468 48.1266217 37.9496245 46.8419316 39.698733 46.8419316 41.2186481 46.8419316 41.7272969 47.9798574 41.7272969 49.3449662L41.7272969 50.1451331 41.7272969 50.1451331ZM43.6633791 46.9565283 43.8282376 47.5053865C44.0735149 47.344549 44.3710644 47.1796905 44.6846977 47.0530309 45.0003414 46.9283818 45.324027 46.8419316 45.6054928 46.8419316 46.1704347 46.8419316 46.6911463 46.9846749 47.079167 47.340528 47.4611562 47.6943707 47.7004021 48.2532812 47.7004021 49.0936575L47.7004021 52.8854032 46.8157955 52.8854032 46.8157955 49.1459297C46.8157955 48.5729459 46.6670207 48.2030195 46.4398376 47.973826 46.2046127 47.7446324 45.8789166 47.6601927 45.5190426 47.6601927 45.2456187 47.6601927 44.9661634 47.7325696 44.6967605 47.8431454 44.4273576 47.9517108 44.1820803 48.0944541 43.9528867 48.2311661L43.9528867 52.8854032 43.0682801 52.8854032 43.0682801 46.9565283 43.6633791 46.9565283M53.9851301 47.0088005C53.9851301 47.2882558 54.0595175 47.5335331 54.1801457 47.7506638 54.292732 47.9677946 54.4475381 48.1567787 54.6083757 48.3095744 54.6244594 48.303543 54.6365223 48.2934906 54.652606 48.2874592L54.6988468 48.2713755C54.9501555 48.1628101 55.2416736 48.0260982 55.4708672 47.8129884 55.6980502 47.6079205 55.8709506 47.3164024 55.8709506 46.9002352 55.8709506 46.5805705 55.7724376 46.3734921 55.6136105 46.2428116 55.4527729 46.1101206 55.2356422 46.0658903 54.9843335 46.0658903 54.3047948 46.0658903 53.9851301 46.4358167 53.9851301 47.0088005ZM56.4881648 51.4237918 54.322889 49.258516C54.0655489 49.4193536 53.8142402 49.6183901 53.6312875 49.8696988 53.4423033 50.1270389 53.3216751 50.4346408 53.3216751 50.8186405 53.3216751 51.2247553 53.4603975 51.5605038 53.7157272 51.7997496 53.9730673 52.041006 54.357067 52.1777179 54.8355588 52.1777179 55.5613383 52.1777179 56.0820499 51.8801684 56.4881648 51.4237918ZM57.6180487 48.7156892 58.3840376 49.0253016C58.2292315 49.9440862 57.9779228 50.7040437 57.6180487 51.3152265L58.6815871 52.3767544 58.0704044 53 57.0933161 52.0289432C56.4982171 52.6743039 55.744291 53 54.853653 53 54.1620514 53 53.5569001 52.7949321 53.1286701 52.4169638 52.70044 52.041006 52.4430999 51.4921478 52.4430999 50.8005462 52.4430999 49.9099082 52.8713299 49.292694 53.7800622 48.7438358 53.3920416 48.3397314 53.1045444 47.7908732 53.1045444 47.0831879 53.1045444 46.5343297 53.2814657 46.0719217 53.6091723 45.752257 53.928837 45.4305819 54.391245 45.2415978 54.9622183 45.2415978 55.4366892 45.2415978 55.881003 45.3682573 56.206699 45.6376603 56.5263637 45.9110841 56.7394735 46.317199 56.7394735 46.882141 56.7394735 47.4551248 56.5263637 47.8531978 56.2187619 48.1507473 55.9091495 48.4543282 55.5110765 48.6593961 55.1391397 48.8363174L56.9787194 50.6799181C57.298384 50.0405887 57.4632425 49.326872 57.5718079 48.7156892L57.6180487 48.7156892 57.6180487 48.7156892ZM63.9007663 49.0474167C63.9007663 49.9320234 64.1420226 50.7100751 64.5923678 51.2709961 65.0447235 51.8299067 65.7121994 52.1777179 66.5586071 52.1777179 67.3808892 52.1777179 68.0262499 51.8580533 68.4605113 51.3272893 68.8947728 50.7945148 69.1279873 50.0466201 69.1279873 49.1841287 69.1279873 48.299522 68.9008042 47.5174494 68.4605113 46.9565283 68.0202185 46.3976178 67.3748577 46.0658903 66.52845 46.0658903 65.706168 46.0658903 65.0487444 46.385555 64.5983992 46.9163189 64.1420226 47.4490934 63.9007663 48.1969881 63.9007663 49.0474167ZM63.022191 49.1157727C63.022191 48.0200668 63.3820651 47.0530309 64.0053107 46.3574084 64.6265458 45.6597754 65.5071315 45.2415978 66.5525757 45.2415978 67.5980199 45.2415978 68.4605113 45.6597754 69.0656627 46.3574084 69.6708141 47.0530309 70.0065625 48.0200668 70.0065625 49.1157727 70.0065625 50.2134891 69.6486989 51.1785145 69.0314847 51.874137 68.4142705 52.57177 67.5356953 53 66.4882406 53 65.4448069 53 64.5823155 52.5778014 63.9751536 51.8801684 63.3720127 51.1825355 63.022191 50.2134891 63.022191 49.1157727L63.022191 49.1157727ZM71.9728018 46.9565283 72.1376603 47.5053865C72.3829376 47.344549 72.6804871 47.1796905 72.9941203 47.0530309 73.3097641 46.9283818 73.6334497 46.8419316 73.9149154 46.8419316 74.4798574 46.8419316 75.000569 46.9846749 75.3885896 47.340528 75.7705789 47.6943707 76.0098247 48.2532812 76.0098247 49.0936575L76.0098247 52.8854032 75.1252181 52.8854032 75.1252181 49.1459297C75.1252181 48.5729459 74.9784538 48.2030195 74.7492603 47.973826 74.5140354 47.7446324 74.1883393 47.6601927 73.8284652 47.6601927 73.5550413 47.6601927 73.2755861 47.7325696 73.0061831 47.8431454 72.7387907 47.9517108 72.4915029 48.0944541 72.2643199 48.2311661L72.2643199 52.8854032 71.3777028 52.8854032 71.3777028 46.9565283 71.9728018 46.9565283M81.4099461 51.5323572 81.4099461 47.8893862C81.0098627 47.7325696 80.621842 47.6541613 80.2499052 47.6541613 79.6548062 47.6541613 79.1461573 47.8431454 78.7882938 48.2191033 78.4223883 48.5970715 78.2092785 49.1620135 78.2092785 49.9099082 78.2092785 50.5050072 78.3419695 51.0699492 78.6334876 51.4861164 78.9250057 51.9042941 79.3713299 52.1777179 80.0046279 52.1777179 80.5977164 52.1777179 81.0943024 51.97265 81.4099461 51.5323572ZM81.7356422 52.8914346 81.5526895 52.3667021C81.1003338 52.7547227 80.5695698 53 79.8839997 53 79.1079584 53 78.4666186 52.6401259 78.0223048 52.0631212 77.5759806 51.4921478 77.3246719 50.7040437 77.3246719 49.8355208 77.3246719 48.9951445 77.5659282 48.2532812 78.0564828 47.7104544 78.5490479 47.1676276 79.2909112 46.8419316 80.3122297 46.8419316 80.7002504 46.8419316 81.0621349 46.8942038 81.4099461 46.9625597L81.4099461 44.728928 82.2382596 44.6143312 82.2945528 44.6143312 82.2945528 52.8914346 81.7356422 52.8914346 81.7356422 52.8914346ZM84.5864881 49.3449662 87.372999 49.3449662C87.3609362 48.4181397 87.1216903 47.6642136 86.1968743 47.6642136 85.2660269 47.6642136 84.7292315 48.3960246 84.5864881 49.3449662ZM88.2415219 50.1451331 84.5462787 50.1451331C84.6266975 51.3835824 85.3745922 52.1777179 86.5064866 52.1777179 87.0352401 52.1777179 87.5619832 52.0289432 88.10481 51.7555193L88.1208937 51.7615507 88.1208937 52.5778014C87.50569 52.8793718 86.9688946 53 86.4200364 53 84.7010849 53 83.665693 51.7836659 83.665693 49.8475836 83.665693 48.1266217 84.4658599 46.8419316 86.212958 46.8419316 87.7328731 46.8419316 88.2415219 47.9798574 88.2415219 49.3449662L88.2415219 50.1451331 88.2415219 50.1451331ZM90.1776041 46.9565283 90.382672 47.6300357C90.8229649 47.1213868 91.2914043 46.8419316 91.838252 46.8419316 91.9830058 46.8419316 92.1599272 46.8600258 92.3368485 46.8942038 92.5137698 46.9283818 92.6846597 46.9846749 92.8213717 47.0469995L92.5137698 47.8431454C92.2906077 47.7325696 91.9427964 47.6601927 91.6975192 47.6601927 91.1768075 47.6601927 90.7706927 47.9899097 90.4671118 48.4543282L90.4671118 52.8854032 89.5825051 52.8854032 89.5825051 46.9565283 90.1776041 46.9565283M94.4719672 46.9565283 94.6388362 47.5053865C94.8841135 47.344549 95.181663 47.1796905 95.4952963 47.0530309 95.81094 46.9283818 96.1346256 46.8419316 96.4140809 46.8419316 96.9810333 46.8419316 97.5017449 46.9846749 97.8877551 47.340528 98.2717548 47.6943707 98.5110007 48.2532812 98.5110007 49.0936575L98.5110007 52.8854032 97.6263941 52.8854032 97.6263941 49.1459297C97.6263941 48.5729459 97.4776193 48.2030195 97.2484258 47.973826 97.0152113 47.7446324 96.6895152 47.6601927 96.3296412 47.6601927 96.0562173 47.6601927 95.7747515 47.7325696 95.5073591 47.8431454 95.2379561 47.9517108 94.9926789 48.0944541 94.7634853 48.2311661L94.7634853 52.8854032 93.8788787 52.8854032 93.8788787 46.9565283 94.4719672 46.9565283M100.744632 49.3449662 103.533154 49.3449662C103.521091 48.4181397 103.281845 47.6642136 102.355019 47.6642136 101.424171 47.6642136 100.887376 48.3960246 100.744632 49.3449662ZM104.401677 50.1451331 100.704423 50.1451331C100.784842 51.3835824 101.532737 52.1777179 102.664631 52.1777179 103.195395 52.1777179 103.720127 52.0289432 104.264965 51.7555193L104.281048 51.7615507 104.281048 52.5778014C103.663834 52.8793718 103.127039 53 102.578181 53 100.859229 53 99.8258478 51.7836659 99.8258478 49.8475836 99.8258478 48.1266217 100.626015 46.8419316 102.373113 46.8419316 103.893028 46.8419316 104.401677 47.9798574 104.401677 49.3449662L104.401677 50.1451331 104.401677 50.1451331ZM109.12427 52.8854032 109.12427 49.1378879C109.12427 48.5910401 109.011683 48.2191033 108.816668 47.9838783 108.621652 47.7566952 108.348229 47.6601927 108.034595 47.6601927 107.538009 47.6601927 107.06957 47.8813444 106.629277 48.2191033L106.629277 52.8854032 105.74266 52.8854032 105.74266 46.9565283 106.303581 46.9565283 106.502617 47.4993551C106.862491 47.2661407 107.160041 47.1053031 107.427433 46.9967377 107.696836 46.8881724 107.942114 46.8419316 108.193422 46.8419316 108.690008 46.8419316 109.186594 47.0248843 109.548479 47.4812609 109.793756 47.3284652 110.091306 47.1676276 110.398908 47.0469995 110.70852 46.9283818 111.016122 46.8419316 111.289546 46.8419316 111.854488 46.8419316 112.375199 46.9846749 112.76322 47.340528 113.147219 47.6943707 113.386465 48.2532812 113.386465 49.0936575L113.386465 52.8914346 112.499848 52.8914346 112.499848 49.1459297C112.499848 48.5729459 112.353084 48.2030195 112.12389 47.973826 111.890676 47.7446324 111.56498 47.6601927 111.205106 47.6601927 110.740687 47.6601927 110.28029 47.8692815 109.868144 48.0984751 109.954594 48.3718989 110.004855 48.6996055 110.004855 49.0876261L110.004855 52.8854032 109.12427 52.8854032M115.620097 49.3449662 118.408618 49.3449662C118.396556 48.4181397 118.15731 47.6642136 117.230483 47.6642136 116.299636 47.6642136 115.76284 48.3960246 115.620097 49.3449662ZM119.275131 50.1451331 115.579888 50.1451331C115.660307 51.3835824 116.408201 52.1777179 117.540096 52.1777179 118.07086 52.1777179 118.597603 52.0289432 119.138419 51.7555193L119.156513 51.7615507 119.156513 52.5778014C118.539299 52.8793718 118.002504 53 117.453645 53 115.734694 53 114.699302 51.7836659 114.699302 49.8475836 114.699302 48.1266217 115.499469 46.8419316 117.246567 46.8419316 118.766482 46.8419316 119.275131 47.9798574 119.275131 49.3449662L119.275131 50.1451331 119.275131 50.1451331ZM121.213224 46.9565283 121.378082 47.5053865C121.623359 47.344549 121.920909 47.1796905 122.234542 47.0530309 122.548175 46.9283818 122.873871 46.8419316 123.155337 46.8419316 123.720279 46.8419316 124.23898 46.9846749 124.629011 47.340528 125.011001 47.6943707 125.250247 48.2532812 125.250247 49.0936575L125.250247 52.8854032 124.36564 52.8854032 124.36564 49.1459297C124.36564 48.5729459 124.216865 48.2030195 123.989682 47.973826 123.754457 47.7446324 123.428761 47.6601927 123.068887 47.6601927 122.795463 47.6601927 122.513997 47.7325696 122.246605 47.8431454 121.979213 47.9517108 121.731925 48.0944541 121.502731 48.2311661L121.502731 52.8854032 120.618125 52.8854032 120.618125 46.9565283 121.213224 46.9565283" />
      <polygon fill="#358AAB" points="0 26.231 65.883 26.231 65.883 22.391 0 22.391" />
      <polyline fill="#2F2F2E"
                points="9.578 16.331 6.283 16.331 .738 .241 3.721 .241 7.929 12.459 12.139 .241 15.121 .241 9.578 16.331" />
      <path fill="#2F2F2E"
            d="M23.3717093 10.1026098 21.2305591 3.87216448 19.0773462 10.1026098 23.3717093 10.1026098ZM19.5819741-3.57131145e-15 22.8771338-3.57131145e-15 28.422009 16.0897883 25.438472 16.0897883 24.3085881 12.8066914 18.1525302 12.8066914 17.0206358 16.0897883 14.0391093 16.0897883 19.5819741-3.57131145e-15 19.5819741-3.57131145e-15ZM33.1606858 8.64702982 34.9399514 8.64702982C36.5744632 8.64702982 37.6339807 8.36958501 38.2833624 7.88908277 38.9327441 7.40858053 39.1619376 6.72301039 39.1619376 5.86856081 39.1619376 5.0020484 38.9327441 4.28028981 38.2833624 3.76359912 37.6339807 3.24690843 36.5744632 2.94533799 34.9399514 2.94533799L33.1606858 2.94533799 33.1606858 8.64702982ZM30.3460284.241256354 34.8917002.241256354C35.9371444.241256354 37.0690388.371936879 38.1265458.709695774 39.1840528 1.0454442 40.1350049 1.60033381 40.8447007 2.45277293 41.5543965 3.30722252 41.9866474 4.42504362 41.9866474 5.95300053 41.9866474 7.05875882 41.7112131 7.96145968 41.2287004 8.69528109 40.7481982 9.4291025 40.0746908 10.0061073 39.2684925 10.4262954 39.5941886 11.148054 40.2315075 11.9904408 40.9653289 12.7121994 41.6991503 13.4440103 42.5395266 14.0692664 43.2612852 14.3225855L43.2612852 14.4552765 42.0107731 16.3310447C41.2287004 16.3310447 40.4245126 15.9832334 39.6786283 15.4404066 38.9327441 14.9116531 38.247174 14.1898945 37.6942948 13.4319475 37.1414157 12.6760109 36.7192171 11.8939382 36.492034 11.2566194 35.9733328 11.3410591 35.4325165 11.3531219 34.8917002 11.3531219L33.1606858 11.3531219 33.1606858 16.0897883 30.3460284 16.0897883 30.3460284.241256354 30.3460284.241256354Z" />
      <polygon fill="#2F2F2E" points="45.065 16.092 47.879 16.092 47.879 .241 45.065 .241" />
      <path fill="#2F2F2E"
            d="M52.9778848,8.03383658 C52.9778848,9.62009711 53.4000835,11.0274258 54.2163341,12.0266292 C55.0225324,13.0238222 56.2247933,13.6249526 57.8130643,13.6249526 C59.353084,13.6249526 60.5191564,13.0720734 61.301229,12.1090585 C62.0812913,11.1601168 62.4914271,9.82516501 62.4914271,8.27308247 C62.4914271,6.4576284 61.8782338,5.05029967 60.975533,4.11342083 C60.0627798,3.17453152 58.8484561,2.69402928 57.6441848,2.69402928 C56.4781124,2.69402928 55.2999772,3.15040589 54.4334648,4.05310674 C53.5569001,4.95379713 52.9778848,6.28874896 52.9778848,8.03383658 Z M50.1652378,8.15446476 C50.1652378,5.84443517 50.9453001,3.81185039 52.2923147,2.34420757 C53.6393293,0.878575222 55.5532964,-3.57131145e-15 57.8130643,-3.57131145e-15 C60.0748426,-3.57131145e-15 61.9506107,0.878575222 63.2614369,2.34420757 C64.5602003,3.81185039 65.3060845,5.84443517 65.3060845,8.15446476 C65.3060845,10.4624839 64.5360747,12.4950687 63.18906,13.9627115 C61.8420454,15.4303543 59.9421516,16.3310447 57.6803733,16.3310447 C55.4206054,16.3310447 53.5327744,15.4303543 52.2340111,13.9627115 C50.9231849,12.4950687 50.1652378,10.4624839 50.1652378,8.15446476 L50.1652378,8.15446476 Z" />
</svg>