<svg xmlns="http://www.w3.org/2000/svg" width="142" height="60" viewBox="0 0 142 60"><g fill-rule="evenodd"><polyline points="53.628 29.309 51.02 29.309 46.631 16.571 48.992 16.571 52.324 26.244 55.656 16.571 58.018 16.571 53.628 29.309"/><polyline points="61.47 15.332 61.756 15.332 61.756 29.12 59.527 29.12 59.527 15.524 61.47 15.332"/><path d="M69.044231 25.7197995 69.044231 25.1199442C68.0069477 25.1199442 67.1980276 25.1022541 66.6448099 25.2341258 66.0915922 25.3676057 65.7876441 25.6522555 65.7876441 26.2344206 65.7876441 27.0433407 66.368201 27.4904179 67.1771211 27.4904179 67.45373 27.4904179 67.9201054 27.4341312 68.320545 27.1864698 68.7209845 26.9388083 69.044231 26.4917312 69.044231 25.7197995ZM72.7109066 27.4437803 71.7009626 29.3092819C70.9772766 29.3092819 70.214994 29.0809188 69.4832671 28.2703905 69.0924767 28.5662977 68.749932 28.8236082 68.3398433 29.0037256 67.9201054 29.1951004 67.45373 29.3092819 66.8168863 29.3092819 66.131797 29.3092819 65.3212687 29.1758021 64.6828168 28.7190758 64.036324 28.2607414 63.5602995 27.4807687 63.5602995 26.1588357 63.5602995 25.2920207 63.7693643 24.595674 64.3032837 24.1292986 64.835595 23.6629232 65.7024099 23.4056126 67.0275594 23.4056126 67.5598706 23.4056126 68.177416 23.4056126 69.0538801 23.4828058L69.0538801 22.9874829C69.0538801 22.3007853 68.8351661 21.826369 68.4829723 21.540111 68.1307784 21.253853 67.6547539 21.1412796 67.1208345 21.1412796 66.274926 21.1412796 65.2746311 21.4452277 64.4753602 21.8167198L63.9494817 19.874025C64.9883731 19.3787022 66.3119144 19.0361575 67.5598706 19.0361575 68.539259 19.0361575 69.4527115 19.2452223 70.1394091 19.7598435 70.8148493 20.2744646 71.2442363 21.0833847 71.2442363 22.2927444L71.2442363 25.9674609C71.2442363 26.4338363 71.3954063 26.7570827 71.662366 26.9870541 71.9196766 27.2154172 72.2815195 27.356938 72.7109066 27.4437803L72.7109066 27.4437803ZM78.85098 25.7197995 78.85098 25.1199442C77.8136968 25.1199442 77.0047767 25.1022541 76.4515589 25.2341258 75.8983412 25.3676057 75.5943931 25.6522555 75.5943931 26.2344206 75.5943931 27.0433407 76.1749501 27.4904179 76.9838702 27.4904179 77.260479 27.4904179 77.7268544 27.4341312 78.127294 27.1864698 78.5277336 26.9388083 78.85098 26.4917312 78.85098 25.7197995ZM82.5160474 27.4437803 81.5061034 29.3092819C80.7824174 29.3092819 80.0217431 29.0809188 79.2900162 28.2703905 78.8976175 28.5662977 78.5550728 28.8236082 78.1465923 29.0037256 77.7268544 29.1951004 77.260479 29.3092819 76.6220272 29.3092819 75.938546 29.3092819 75.1280177 29.1758021 74.4895659 28.7190758 73.8430731 28.2607414 73.3670485 27.4807687 73.3670485 26.1588357 73.3670485 25.2920207 73.5761133 24.595674 74.1100328 24.1292986 74.642344 23.6629232 75.509159 23.4056126 76.8327002 23.4056126 77.3650115 23.4056126 77.984165 23.4056126 78.8606291 23.4828058L78.8606291 22.9874829C78.8606291 22.3007853 78.640307 21.826369 78.2881131 21.540111 77.9375275 21.253853 77.4615029 21.1412796 76.9275835 21.1412796 76.0800668 21.1412796 75.079772 21.4452277 74.280501 21.8167198L73.7562307 19.874025C74.7951222 19.3787022 76.1186634 19.0361575 77.3650115 19.0361575 78.346008 19.0361575 79.2594605 19.2452223 79.9461581 19.7598435 80.6215983 20.2744646 81.0493772 21.0833847 81.0493772 22.2927444L81.0493772 25.9674609C81.0493772 26.4338363 81.2021553 26.7570827 81.469115 26.9870541 81.7264256 27.2154172 82.0882686 27.356938 82.5160474 27.4437803L82.5160474 27.4437803ZM85.7227804 19.2355732 85.9414943 20.0075049C86.8565551 19.3980005 87.9887216 19.0458066 89.0919406 19.0458066 90.0359488 19.0458066 90.9397521 19.3031172 91.5975023 19.874025 92.2536442 20.4449329 92.6830312 21.3117478 92.6830312 22.5597041L92.6830312 29.1195154 90.4540784 29.1195154 90.4540784 23.215846C90.4540784 22.4825109 90.1887269 21.9678898 89.7786382 21.6446434 89.3685495 21.321397 88.8169399 21.1879171 88.2170847 21.1879171 87.4564103 21.1879171 86.6732213 21.4162803 86.0637169 21.7974215L86.0637169 29.1195154 83.8379804 29.1195154 83.8379804 19.2355732 85.7227804 19.2355732M101.106736 26.5576671 101.106736 21.3310461C100.543869 21.1879171 99.9745695 21.1219813 99.5274924 21.1219813 98.6783675 21.1219813 97.9659389 21.3680345 97.4690078 21.8826557 96.9752932 22.3972768 96.6890352 23.1595594 96.6890352 24.1871934 96.6890352 24.9398269 96.8981 25.6715538 97.2985396 26.2344206 97.6989791 26.7956793 98.2891853 27.1671715 99.0788071 27.1671715 99.7542473 27.1671715 100.506881 26.9291592 101.106736 26.5576671ZM101.650305 29.1195154 101.249865 28.3765311C100.487582 28.947439 99.6883115 29.3092819 98.5931334 29.3092819 97.1747089 29.3092819 96.1165191 28.7383741 95.4233888 27.86191 94.7270421 26.9870541 94.3844974 25.8050336 94.3844974 24.5860248 94.3844974 22.7205232 94.9473642 21.3310461 95.8801151 20.4079445 96.8128659 19.4928838 98.126758 19.0458066 99.6513231 19.0458066 100.0984 19.0458066 100.584074 19.0747541 101.106736 19.1406899L101.106736 15.5238682 102.991536 15.3324935 103.335689 15.3324935 103.335689 29.1195154 101.650305 29.1195154 101.650305 29.1195154ZM107.512161 23.2431853 111.502083 23.2431853C111.453837 22.5211075 111.196527 22.0064864 110.853982 21.6639417 110.511437 21.3310461 110.072401 21.1879171 109.644622 21.1879171 109.187896 21.1879171 108.721521 21.3406953 108.340379 21.6735908 107.951197 22.0161355 107.65529 22.5307567 107.512161 23.2431853ZM113.034689 26.5576671 113.034689 28.7190758C112.158225 29.1468546 111.072696 29.3092819 110.225179 29.3092819 108.853392 29.3092819 107.587746 28.8798949 106.654995 28.0339864 105.722244 27.1864698 105.132038 25.891876 105.132038 24.1775443 105.132038 22.5114584 105.685256 21.2345547 106.521515 20.3580905 107.351342 19.4928838 108.46421 19.0458066 109.578686 19.0458066 109.892284 19.0458066 110.453542 19.082795 111.035708 19.2822107 111.616265 19.4832346 112.254716 19.8643759 112.729133 20.522126 113.205157 21.178268 113.538053 22.1496154 113.538053 23.5197942L113.538053 25.0057627 107.541108 25.0057627C107.721226 25.8050336 108.131314 26.3486022 108.663626 26.6911469 109.187896 27.0336916 109.826348 27.1768206 110.463192 27.1768206 111.302667 27.1768206 112.187172 26.9388083 112.947847 26.5287196L113.034689 26.5576671 113.034689 26.5576671ZM121.889389 19.4349889 121.185001 21.6928891C120.623743 21.3503444 120.070525 21.1975663 119.509266 21.1975663 118.78558 21.1975663 118.118181 21.464526 117.518326 21.9212522L117.518326 29.1195154 115.290981 29.1195154 115.290981 19.2355732 117.175781 19.2355732 117.405752 20.0444933C118.089233 19.4655445 118.928709 19.0458066 119.917747 19.0458066 120.184706 19.0458066 120.556199 19.0651049 120.918042 19.1310408 121.279885 19.1985848 121.633687 19.2934681 121.889389 19.4349889M124.832379 23.2431853 128.820692 23.2431853C128.772447 22.5211075 128.516744 22.0064864 128.1742 21.6639417 127.830047 21.3310461 127.392619 21.1879171 126.96484 21.1879171 126.508114 21.1879171 126.041738 21.3406953 125.660597 21.6735908 125.269807 22.0161355 124.975508 22.5307567 124.832379 23.2431853ZM130.353298 26.5576671 130.353298 28.7190758C129.478443 29.1468546 128.392914 29.3092819 127.543789 29.3092819 126.17361 29.3092819 124.907964 28.8798949 123.975213 28.0339864 123.042462 27.1864698 122.450648 25.891876 122.450648 24.1775443 122.450648 22.5114584 123.003865 21.2345547 123.841733 20.3580905 124.669951 19.4928838 125.784428 19.0458066 126.897296 19.0458066 127.210893 19.0458066 127.77376 19.082795 128.354317 19.2822107 128.936482 19.4832346 129.573326 19.8643759 130.04935 20.522126 130.525375 21.178268 130.85827 22.1496154 130.85827 23.5197942L130.85827 25.0057627 124.859718 25.0057627C125.041443 25.8050336 125.451532 26.3486022 125.983843 26.6911469 126.508114 27.0336916 127.144957 27.1768206 127.783409 27.1768206 128.621277 27.1768206 129.505782 26.9388083 130.268064 26.5287196L130.353298 26.5576671 130.353298 26.5576671ZM134.49439 19.2355732 134.713104 20.0075049C135.628165 19.3980005 136.760332 19.0458066 137.863551 19.0458066 138.807559 19.0458066 139.71297 19.3031172 140.369112 19.874025 141.025254 20.4449329 141.454641 21.3117478 141.454641 22.5597041L141.454641 29.1195154 139.225689 29.1195154 139.225689 23.215846C139.225689 22.4825109 138.960337 21.9678898 138.550248 21.6446434 138.14016 21.321397 137.58855 21.1879171 136.988695 21.1879171 136.22802 21.1879171 135.44644 21.4162803 134.838543 21.7974215L134.838543 29.1195154 132.609591 29.1195154 132.609591 19.2355732 134.49439 19.2355732M50.231612 42.10405 51.0453567 42.10405 51.0453567 36.6281594 50.231612 36.6281594 50.231612 42.10405ZM50.0756175 35.1341499C50.0756175 34.8189445 50.3216707 34.5696749 50.6384843 34.5696749 50.955298 34.5696749 51.2093922 34.8189445 51.2093922 35.1341499 51.2093922 35.4397062 50.9456488 35.6938004 50.6384843 35.6938004 50.3425772 35.6938004 50.0756175 35.4300571 50.0756175 35.1341499L50.0756175 35.1341499ZM52.4798631 41.1970302 52.5104187 41.169691C52.8593962 41.3079954 53.3756255 41.4446916 53.7712405 41.4446916 54.3469729 41.4446916 55.1494603 41.1809483 55.1494603 40.5585784 55.1494603 40.2674958 54.9838166 40.0777292 54.7377633 39.9249511 54.4096924 39.7191026 53.8387845 39.5550671 53.3386371 39.2864992 52.7629047 38.9809429 52.4991614 38.5370822 52.4991614 37.962958 52.4991614 36.9176338 53.3643682 36.5220188 54.3630548 36.5220188 54.7634944 36.5220188 55.1542848 36.5847383 55.475923 36.674797L55.475923 37.4145649 55.4437592 37.4306468C55.1542848 37.3502372 54.6155408 37.2553539 54.2343995 37.2553539 53.7567668 37.2553539 53.3064733 37.3968747 53.3064733 37.8938058 53.3064733 38.1945375 53.4817661 38.400386 53.7342521 38.5579887 54.078405 38.7863518 54.7313306 38.9761184 55.2588172 39.2446863 55.8184677 39.5341607 55.9664213 39.8670562 55.9664213 40.4540459 55.9664213 41.0442521 55.6769469 41.4865046 55.2539927 41.7775872 54.827822 42.0670616 54.2681716 42.2085824 53.724603 42.2085824 53.2598358 42.2085824 52.8368815 42.1153073 52.4798631 41.960921L52.4798631 41.1970302M63.1791582 40.1356241 63.1791582 39.6933716C62.4249166 39.6869388 61.8282777 39.6772897 61.4230136 39.7786057 61.0161412 39.8831381 60.795819 40.0938111 60.795819 40.52159 60.795819 41.1069715 61.2541535 41.4495162 61.7028388 41.4495162 62.5197998 41.4495162 63.1791582 41.1117961 63.1791582 40.1356241ZM64.7471445 41.4446916 64.2807691 42.2085824C63.8964114 42.0831435 63.6278435 41.8033182 63.4541589 41.4446916 63.0360292 41.9255408 62.4458231 42.2085824 61.7655582 42.2085824 61.4004989 42.2085824 60.9582463 42.1313892 60.6044443 41.877295 60.2458177 41.6232008 59.9885071 41.2018548 59.9885071 40.52159 59.9885071 39.3653006 60.7684798 38.9375218 62.0759391 38.9375218 62.3718463 38.9375218 62.6934845 38.9600365 63.1791582 39.0018494L63.1791582 38.3199764C63.1791582 37.5721676 62.8253561 37.2762604 62.1450913 37.2762604 61.5597098 37.2762604 61.0531296 37.3872256 60.4999119 37.6670508L60.2876307 36.9546222C61.0322231 36.6538905 61.4551774 36.5220188 62.2866121 36.5220188 63.3737493 36.5220188 63.9929029 37.0816693 63.9929029 38.3199764L63.9929029 40.0616473C63.9929029 40.7113565 64.0910025 41.2388432 64.7471445 41.4446916L64.7471445 41.4446916ZM68.9316576 42.10405 68.9316576 38.6432228C68.9316576 38.1366426 68.8271252 37.7924897 68.6470078 37.5786003 68.4684986 37.3663191 68.2144044 37.2762604 67.92493 37.2762604 67.4649873 37.2762604 67.0323839 37.4821089 66.6255116 37.7924897L66.6255116 42.10405 65.8085506 42.10405 65.8085506 36.6281594 66.3263881 36.6281594 66.5097219 37.1283068C66.8426174 36.9112011 67.1176181 36.7648557 67.3652795 36.6635396 67.6129409 36.56544 67.8396959 36.5220188 68.0728836 36.5220188 68.531218 36.5220188 68.9895525 36.6908789 69.322448 37.1122249 69.5492029 36.9707041 69.8242036 36.8227505 70.1088534 36.7117854 70.3935032 36.6008202 70.6781531 36.5220188 70.9306391 36.5220188 71.4533011 36.5220188 71.9341503 36.6538905 72.2927769 36.9803533 72.6465789 37.306816 72.8669011 37.8262618 72.8669011 38.5998017L72.8669011 42.1088745 72.0515482 42.1088745 72.0515482 38.6496556C72.0515482 38.1205607 71.9132438 37.778016 71.7025708 37.567343 71.485465 37.35667 71.1847332 37.2762604 70.8518377 37.2762604 70.4256671 37.2762604 69.9978882 37.4708515 69.6183552 37.6831328 69.6971565 37.9356188 69.7454023 38.2379587 69.7454023 38.5949771L69.7454023 42.10405 68.9316576 42.10405M75.3354744 37.8777239 75.3354744 41.2919135C75.694101 41.4334343 76.047903 41.4607735 76.4065296 41.4607735 77.5821173 41.4607735 78.2881131 40.5585784 78.2881131 39.25916 78.2881131 38.1414672 77.7783166 37.2826932 76.6332845 37.2826932 76.0832832 37.2826932 75.6136914 37.4772843 75.3354744 37.8777239ZM75.282404 34.4651425 75.3354744 34.4651425 75.3354744 37.0012597C75.719832 36.7069608 76.1733419 36.5220188 76.7442497 36.5220188 78.2302182 36.5220188 79.1066824 37.7924897 79.1066824 39.3331368 79.1066824 41.0120882 78.1256858 42.2085824 76.3470265 42.2085824 75.6683699 42.2085824 75.0234853 42.0300732 74.5185133 41.8194001L74.5185133 34.5696749 75.282404 34.4651425 75.282404 34.4651425ZM80.5395806 42.10405 81.3533253 42.10405 81.3533253 36.6281594 80.5395806 36.6281594 80.5395806 42.10405ZM80.3819779 35.1341499C80.3819779 34.8189445 80.6296393 34.5696749 80.9464529 34.5696749 81.2632666 34.5696749 81.5157526 34.8189445 81.5157526 35.1341499 81.5157526 35.4397062 81.2520092 35.6938004 80.9464529 35.6938004 80.6505458 35.6938004 80.3819779 35.4300571 80.3819779 35.1341499L80.3819779 35.1341499ZM83.1818385 36.6281594 83.1818385 35.6455547 83.9473374 35.5024257 83.9987996 35.5024257 83.9987996 36.6281594 85.5201483 36.6281594 85.5201483 37.3872256 83.9987996 37.3872256 83.9987996 40.0777292C83.9987996 40.5794848 84.1113729 40.917205 84.2850576 41.1375271 84.4587422 41.3594575 84.7080118 41.455949 84.9862289 41.455949 85.3030425 41.455949 85.6568445 41.3337264 86.0154711 41.127878L86.2374015 41.877295C85.7726343 42.0879681 85.3142998 42.2085824 84.886521 42.2085824 84.4056719 42.2085824 83.9891504 42.062237 83.6771613 41.7196923 83.3667805 41.3819722 83.1818385 40.8432282 83.1818385 40.0777292L83.1818385 37.3872256 82.5739423 37.3872256 82.5739423 36.6281594 83.1818385 36.6281594M87.2971994 42.10405 88.1109441 42.10405 88.1109441 36.6281594 87.2971994 36.6281594 87.2971994 42.10405ZM87.1379885 35.1341499C87.1379885 34.8189445 87.3872581 34.5696749 87.7040717 34.5696749 88.0208854 34.5696749 88.2733714 34.8189445 88.2733714 35.1341499 88.2733714 35.4397062 88.009628 35.6938004 87.7040717 35.6938004 87.4081646 35.6938004 87.1379885 35.4300571 87.1379885 35.1341499L87.1379885 35.1341499ZM90.3945754 38.8329894 92.9676811 38.8329894C92.9580319 37.9774317 92.7361015 37.2826932 91.8821521 37.2826932 91.0201617 37.2826932 90.526447 37.9581334 90.3945754 38.8329894ZM93.7701684 39.5727572 90.3559788 39.5727572C90.4299556 40.7161811 91.1214777 41.4495162 92.1651937 41.4495162 92.6573002 41.4495162 93.1429739 41.31282 93.6431213 41.060334L93.6592032 41.0635503 93.6592032 41.8194001C93.0899036 42.0992254 92.5929725 42.2085824 92.0880006 42.2085824 90.4991078 42.2085824 89.5438423 41.086065 89.5438423 39.2977566 89.5438423 37.7088638 90.282002 36.5220188 91.8966258 36.5220188 93.3005766 36.5220188 93.7701684 37.5721676 93.7701684 38.8329894L93.7701684 39.5727572 93.7701684 39.5727572ZM98.7266132 42.10405 98.5641859 41.5813879C98.337431 41.7293414 98.0559975 41.8869442 97.7616986 42.0091667 97.4657914 42.1313892 97.1602351 42.2085824 96.9029246 42.2085824 96.3786543 42.2085824 95.9010215 42.0718861 95.5456113 41.7454234 95.1869847 41.4173524 94.9666625 40.9059476 94.9666625 40.1307995L94.9666625 36.6281594 95.7836236 36.6281594 95.7836236 40.0825538C95.7836236 40.6100405 95.9203198 40.9541934 96.1374256 41.1648664 96.3480987 41.3755394 96.6488304 41.455949 96.9801177 41.455949 97.2342119 41.455949 97.4883061 41.3916213 97.7359675 41.2854807 97.983629 41.1857729 98.2152085 41.060334 98.4274897 40.9316787L98.4274897 36.6281594 99.2444507 36.6281594 99.2444507 42.10405 98.7266132 42.10405M100.519746 41.1970302 100.550302 41.169691C100.899279 41.3079954 101.415509 41.4446916 101.811124 41.4446916 102.386856 41.4446916 103.189343 41.1809483 103.189343 40.5585784 103.189343 40.2674958 103.0237 40.0777292 102.777646 39.9249511 102.449576 39.7191026 101.878668 39.5550671 101.37852 39.2864992 100.802788 38.9809429 100.539045 38.5370822 100.539045 37.962958 100.539045 36.9176338 101.404251 36.5220188 102.402938 36.5220188 102.803378 36.5220188 103.194168 36.5847383 103.515806 36.674797L103.515806 37.4145649 103.483642 37.4306468C103.194168 37.3502372 102.655424 37.2553539 102.274283 37.2553539 101.79665 37.2553539 101.346356 37.3968747 101.346356 37.8938058 101.346356 38.1945375 101.521649 38.400386 101.774135 38.5579887 102.118288 38.7863518 102.771214 38.9761184 103.2987 39.2446863 103.858351 39.5341607 104.006304 39.8670562 104.006304 40.4540459 104.006304 41.0442521 103.71683 41.4865046 103.293876 41.7775872 102.867705 42.0670616 102.308055 42.2085824 101.764486 42.2085824 101.299719 42.2085824 100.876765 42.1153073 100.519746 41.960921L100.519746 41.1970302"/><polyline points="46.55 60 26.18 .103 26.469 0 46.842 59.899 46.55 60"/><path d="M26.5928117 29.8769734C25.1213169 28.7576724 24.4346193 29.8850143 23.5115177 29.8078212 22.7283286 29.7499263 21.9949935 28.4858881 21.3919219 28.7866199 20.2356325 29.3736096 21.8502563 31.4546088 22.554644 31.8775631 23.1818385 32.2506634 23.9698521 32.5964245 24.1596187 32.6880913 25.0859367 33.1190865 25.4558206 33.7768367 25.5748268 34.8028626 25.602166 35.0360503 25.5748268 35.5747943 25.5153237 35.8240639 25.0907613 37.6220215 21.9435314 39.2543354 20.1311001 38.0160283 19.2787588 37.4354713 18.5036107 36.6812297 18.2318264 35.3464312 17.7445445 32.9839985 16.0430784 31.2471522 15.4946853 28.9345734 15.1617897 27.5322308 14.9189529 26.0478705 14.5506771 24.6358787 14.1759686 23.1724249 13.7916109 21.7250529 13.4876628 20.3982953 13.2078376 19.1632046 12.6192397 17.3170013 12.1978936 16.1960921 10.46748 11.6867244 9.68750737 12.0147954 9.68750737 12.0147954 9.68750737 12.0147954 10.3179183 13.2627516 12.6047659 24.3190651 12.698041 24.7741832 13.5326922 29.6405693 14.1357638 31.245544 14.3544778 31.8212764 14.7340109 33.0451098 14.9816723 33.5918947 15.7101829 35.1727465 17.6319712 37.5769921 17.7574101 39.7384009 17.8313869 40.9879654 17.9745159 42.0268568 18.0050715 42.9740813 18.0243698 43.249082 18.1449841 44.3780321 18.3251015 44.8830041 18.7963015 46.2017208 22.5819832 50.4586025 26.6024609 50.4586025L26.6024609 47.2325712C22.6077143 47.2325712 18.842939 44.9939693 18.7480558 44.7543488 18.6917691 44.6514246 18.9587288 43.1236431 19.2272967 42.4465947 19.7563916 41.1327026 20.7406045 39.9297757 22.4774508 39.8011204 24.4104965 39.6612078 25.5796514 40.227291 26.6024609 40.227291L26.5928117 29.8769734M9.24203845 18.1580852C9.09730126 20.5784127 5.35504068 23.8832453 4.18588578 26.0044493 3.60854519 27.0449489 2.9057657 28.8396902 2.7256483 29.8769734 2.22871727 32.7572436 2.85912816 34.5471602 3.56512403 36.2405854 4.80182295 39.2028733 3.39465578 40.294835 4.36439499 39.696588 5.55928094 38.720416 5.38077173 36.4400011 5.29071303 35.0183602 5.22156082 33.863679 5.14597584 32.5513951 5.32126866 31.1763918 5.65255602 28.6048943 7.21089315 25.8436302 8.53925896 23.9121928 10.1152862 21.6092632 9.54437837 19.2291404 9.24203845 18.1580852M9.99788825 25.0282774C9.99788825 25.0282774 10.3951114 26.9452411 8.70490264 31.8646975 4.28720182 44.7446997 12.7269885 45.9653167 15.1296259 48.9935404 15.1296259 48.9935404 16.0639849 47.6828647 12.2332738 43.4854861 10.8357558 41.9496636 9.574934 38.5676378 10.6749367 33.7414565 12.2590049 26.7474336 9.99788825 25.0282774 9.99788825 25.0282774M1.64172753 16.5852743C1.44231184 15.8229918 1.37959239 15.1379024 1.42140536 14.5316144 1.62725381 11.5082152 4.37404413 10.2827736 5.05752533 9.83087191 5.05752533 9.83087191 6.29422425 8.9865716 6.45504336 8.13262216 6.45504336 8.13262216 7.71747333 11.3152322 4.81790486 13.1389209 3.34801824 14.065239 2.34450702 15.1507679 1.64172753 16.5852743M8.56981459 13.6583666C8.72741731 13.9639229 9.86762477 15.631617 5.20547891 19.4816264.548157618 23.3268112 1.99874595 26.0784261 1.99874595 26.0784261 1.99874595 26.0784261-2.96734802 23.3139457 2.75620393 18.5327937 8.48136408 13.762899 7.30416823 12.7963762 7.30416823 12.7963762 7.30416823 12.7963762 8.12595386 12.7561714 8.56981459 13.6583666M17.1398647 16.2636361C17.2058005 16.0819105 17.3055084 16.2266477 17.5097487 16.0979924 17.7236381 15.8953604 17.950393 15.5544239 18.3009787 15.4386341 18.556681 15.3646573 18.9040503 15.4032539 19.1420626 15.4949208 19.2996653 15.5351256 19.2063902 15.9387815 19.0857759 16.0433139 18.8316817 16.2266477 18.0886974 15.9226996 18.0886974 16.4791337 18.1176449 17.3958026 19.3270045 16.4501863 19.9541991 16.4759173 20.2629717 18.7096947 16.5930798 18.0985821 17.1398647 16.2636361ZM14.6278703 15.1314696C15.433574 15.2376102 15.9481951 17.7496047 17.8104804 18.2947814 19.1838755 18.695221 20.6376803 18.4829398 20.9657512 19.3047254 20.332124 19.6392291 20.829055 20.7440564 21.4610741 20.563939 21.9853444 19.0940524 22.2458713 13.417138 14.6278703 15.1314696L14.6278703 15.1314696Z"/></g></svg>